<?xml version="1.0" standalone="no"?>
<!DOCTYPE svg PUBLIC "-//W3C//DTD SVG 20010904//EN"
 "http://www.w3.org/TR/2001/REC-SVG-20010904/DTD/svg10.dtd">
<svg version="1.0" xmlns="http://www.w3.org/2000/svg"
 width="3648.000000pt" height="1506.000000pt" viewBox="0 0 3648.000000 1506.000000"
 preserveAspectRatio="xMidYMid meet">
<metadata>
Created by potrace 1.16, written by Peter Selinger 2001-2019
</metadata>
<g transform="translate(0.000000,1506.000000) scale(0.100000,-0.100000)"
fill="#000000" stroke="none">
<path d="M20065 15048 c-2 -7 -32 -1605 -65 -3552 -51 -2905 -59 -3540 -49
-3547 8 -4 1130 -8 2495 -9 l2482 0 6 152 c8 203 29 1548 25 1553 -2 1 -658 5
-1457 8 -860 2 -1457 8 -1462 13 -9 9 26 2255 35 2282 3 9 305 12 1464 12
l1459 0 6 143 c13 307 28 1549 19 1558 -5 5 -595 10 -1456 12 -947 1 -1449 5
-1456 12 -6 7 -6 242 2 682 6 370 8 675 5 678 -3 3 -465 8 -1026 11 -844 5
-1023 3 -1027 -8z M131 13678 c-4 -13 -14 -391 -21 -841 -12 -762 -12 -820 4
-835 15 -15 65 -17 539 -18 2594 -2 2905 -4 2909 -16 7 -24 -35 -2273 -43
-2282 -5 -5 -722 -8 -1728 -7 -1405 2 -1721 0 -1728 -11 -4 -7 -20 -699 -35
-1537 l-26 -1524 34 -51 c19 -28 40 -60 48 -71 7 -11 169 -254 358 -540 190
-286 569 -857 843 -1270 274 -412 550 -828 612 -924 82 -123 118 -170 126
-162 7 7 22 696 48 2161 21 1182 40 2164 44 2180 l7 30 241 1 c133 0 904 0
1714 -1 1030 0 1473 2 1478 10 4 6 19 752 35 1658 16 906 39 2186 50 2846 13
698 18 1202 12 1208 -5 5 -1179 11 -2760 14 l-2752 5 -9 -23z M6424 13678 c-9
-13 -111 -5704 -103 -5712 7 -7 3437 -13 3448 -6 11 6 45 1685 35 1701 -3 5
-291 9 -684 9 -652 0 -679 1 -685 19 -7 22 32 2253 40 2273 5 11 171 13 1038
10 567 -2 1032 -4 1033 -5 1 -1 -14 -898 -34 -1994 -19 -1095 -32 -1998 -29
-2007 5 -13 123 -15 1026 -16 667 0 1022 3 1026 10 12 19 107 5713 95 5720 -5
3 -1402 7 -3104 9 -2552 2 -3095 0 -3102 -11z M13585 13681 l-170 -6 -7 -35
c-9 -47 -103 -5652 -95 -5673 6 -16 80 -17 1036 -17 701 0 1032 3 1036 10 5 9
74 3621 75 3928 l0 83 844 -3 c465 -2 846 -6 849 -8 2 -3 -2 -304 -8 -670 -8
-397 -9 -669 -3 -675 14 -16 2030 -18 2051 -3 15 12 19 140 43 1525 15 832 24
1519 21 1527 -5 13 -304 15 -2639 16 -1448 0 -2685 2 -2748 4 -63 2 -191 0
-285 -3z M25814 13658 c-9 -14 -69 -3416 -60 -3425 3 -3 931 -8 2062 -10 1131
-2 2060 -6 2065 -9 10 -6 0 -545 -10 -557 -4 -4 -932 -7 -2063 -7 -1568 0
-2059 -3 -2064 -12 -9 -14 -39 -1686 -31 -1694 3 -4 1398 -9 3100 -11 l3095
-5 6 123 c8 177 100 5599 94 5604 -7 7 -2046 11 -2053 4 -3 -4 -13 -384 -21
-845 -9 -462 -19 -843 -24 -847 -10 -11 -2050 -11 -2060 0 -4 4 -1 385 7 847
13 710 13 840 2 847 -23 14 -2036 11 -2045 -3z M3056 7097 c-13 -11 -17 -119
-31 -847 -14 -782 -14 -836 2 -847 13 -10 374 -13 1725 -13 1682 0 1707 0
1718 -19 13 -26 -26 -2259 -40 -2276 -8 -9 -404 -12 -1725 -10 -1650 3 -1716
2 -1725 -15 -13 -25 -66 -3048 -54 -3060 6 -6 62 3 149 24 77 18 212 50 300
70 146 33 333 76 460 106 116 27 454 104 810 184 116 26 233 53 260 61 28 8
62 17 76 19 l26 6 6 271 c4 150 7 348 7 440 0 145 2 168 16 173 9 3 784 6
1722 6 1376 -1 1707 2 1714 12 4 7 8 90 8 183 1 94 23 1372 49 2840 34 1921
45 2673 37 2681 -16 17 -5488 27 -5510 11z M9347 7082 c-15 -17 -21 -281 -67
-2857 -32 -1827 -46 -2843 -40 -2849 6 -6 1134 -11 3110 -14 l3099 -4 5 23 c3
13 26 1219 50 2679 25 1460 48 2734 50 2830 3 96 2 180 -2 187 -5 8 -271 12
-1023 16 -558 3 -1020 3 -1026 -1 -8 -5 -21 -598 -46 -2005 -20 -1099 -37
-2000 -39 -2002 -6 -7 -2059 -7 -2066 -1 -3 3 10 900 30 1994 20 1135 31 1995
26 2005 -8 16 -67 17 -1027 17 -971 0 -1019 -1 -1034 -18z M16333 7079 c-16
-21 -45 -1669 -29 -1686 11 -12 816 -17 3665 -22 l473 -1 -4 -280 c-2 -153 -7
-282 -10 -285 -3 -4 -933 -6 -2066 -5 -1657 0 -2061 -2 -2070 -12 -11 -15 -75
-3408 -63 -3420 9 -10 2061 -12 2071 -2 4 5 13 362 19 794 7 432 14 812 17
845 l5 60 2065 -2 c1607 -2 2066 1 2069 10 9 29 71 3993 63 4002 -6 7 -1057
11 -3101 14 -2595 3 -3095 1 -3104 -10z M23344 7075 c-17 -14 -117 -5706 -100
-5717 6 -4 471 -8 1034 -8 809 0 1024 3 1027 13 7 18 104 5688 98 5704 -4 11
-119 13 -642 14 -350 0 -809 2 -1020 2 -243 1 -389 -2 -397 -8z M26165 7068
c-7 -23 -102 -5703 -96 -5710 4 -4 749 -10 1657 -13 1340 -4 1653 -3 1662 8
16 18 45 1676 30 1694 -8 10 -130 13 -624 13 l-614 0 0 123 c1 67 16 968 34
2002 19 1034 32 1883 29 1888 -2 4 -470 7 -1039 7 -819 0 -1035 -3 -1039 -12z
M30281 7065 c-10 -12 -76 -3703 -66 -3713 4 -4 932 -8 2063 -10 1617 -2 2058
-5 2064 -15 9 -14 11 -222 2 -255 l-7 -23 -2058 4 c-1484 3 -2062 1 -2068 -7
-13 -16 -41 -1678 -29 -1693 8 -10 623 -13 2766 -15 2440 -3 3422 -1 3429 6 6
6 66 3694 60 3709 -6 16 -133 17 -2059 17 -1129 0 -2059 4 -2066 8 -10 7 -11
38 -5 143 l8 134 2063 1 c1135 1 2065 3 2067 6 7 7 35 1692 27 1699 -12 12
-6182 16 -6191 4z"/>
</g>
</svg>
